<?xml version="1.0" encoding="UTF-8"?>
<svg xmlns="http://www.w3.org/2000/svg" width="936" height="729" viewBox="0 0 936 729" style="background:#fff">
<defs>
  <marker id="arr" markerWidth="10" markerHeight="7" refX="9" refY="3.5" orient="auto">
    <polygon points="0 0,10 3.5,0 7" fill="#CC0000"/>
  </marker>
</defs>
<style>
  .o{stroke:#000;fill:none;stroke-dasharray:12,9;stroke-width:4.5}
  .t{stroke:#CC0000;fill:none;stroke-width:6.0;marker-end:url(#arr)}
  .b{fill:#fff;stroke:#000;stroke-width:4.5}
  .d{fill:#000}
  .tx{font-size:42px;font-family:'Noto Sans SC', SimSun, 'Microsoft YaHei', sans-serif;fill:#000}
  .tb{font-size:45px;font-family:'Noto Sans SC', SimSun, 'Microsoft YaHei', sans-serif;fill:#000;font-weight:bold}
  .tl{font-size:39px;font-family:'Noto Sans SC', SimSun, 'Microsoft YaHei', sans-serif;fill:#000;font-style:italic}
</style>
<rect width="936" height="729" fill="#fff"/>
<g data-orbit="I">
  <circle cx="612" cy="393" r="321" class="o"/>
  <text x="963" y="528" class="tl">I</text>
</g>
<g data-orbit="II">
  <circle cx="612" cy="393" r="225" class="o"/>
  <text x="867" y="488" class="tl">II</text>
</g>
<g data-orbit="III">
  <circle cx="612" cy="393" r="150" class="o"/>
  <text x="792" y="456" class="tl">III</text>
</g>
<g data-type="planet">
  <circle cx="612" cy="393" r="99" class="b"/>
  <text x="612" y="408" class="tb" text-anchor="middle">火星</text>
</g>
<g data-marker="S">
  <circle cx="612" cy="81" r="27" class="d"/>
  <text x="645" y="96" class="tb">S</text>
</g>
<g data-marker="Q">
  <circle cx="585" cy="84" r="12" class="d"/>
  <text x="618" y="99" class="tb">Q</text>
</g>
<g data-marker="P">
  <circle cx="759" cy="117" r="12" class="d"/>
  <text x="792" y="132" class="tb">P</text>
</g>
<g data-marker="M3">
  <circle cx="447" cy="129" r="12" class="d"/>
  <text x="480" y="144" class="tb">M3</text>
</g>
<g data-marker="M4">
  <circle cx="786" cy="135" r="12" class="d"/>
  <text x="819" y="150" class="tb">M4</text>
</g>
<g data-marker="M5">
  <circle cx="423" cy="147" r="12" class="d"/>
  <text x="456" y="162" class="tb">M5</text>
</g>
<g data-marker="M6">
  <circle cx="402" cy="165" r="12" class="d"/>
  <text x="435" y="180" class="tb">M6</text>
</g>
<g data-marker="M7">
  <circle cx="831" cy="171" r="12" class="d"/>
  <text x="864" y="186" class="tb">M7</text>
</g>
<g data-marker="M8">
  <circle cx="381" cy="186" r="12" class="d"/>
  <text x="414" y="201" class="tb">M8</text>
</g>
<g data-marker="M9">
  <circle cx="360" cy="210" r="12" class="d"/>
  <text x="393" y="225" class="tb">M9</text>
</g>
<g data-marker="M10">
  <circle cx="345" cy="234" r="12" class="d"/>
  <text x="378" y="249" class="tb">M10</text>
</g>
<g data-marker="M11">
  <circle cx="885" cy="240" r="12" class="d"/>
  <text x="918" y="255" class="tb">M11</text>
</g>
<g data-marker="M12">
  <circle cx="330" cy="261" r="12" class="d"/>
  <text x="363" y="276" class="tb">M12</text>
</g>
<g data-marker="M13">
  <circle cx="687" cy="285" r="12" class="d"/>
  <text x="720" y="300" class="tb">M13</text>
</g>
<g data-marker="M14">
  <circle cx="321" cy="288" r="12" class="d"/>
  <text x="354" y="303" class="tb">M14</text>
</g>
<g data-marker="M15">
  <circle cx="513" cy="312" r="12" class="d"/>
  <text x="546" y="327" class="tb">M15</text>
</g>
<g data-marker="M16">
  <circle cx="915" cy="324" r="12" class="d"/>
  <text x="948" y="339" class="tb">M16</text>
</g>
<g data-marker="M17">
  <circle cx="492" cy="333" r="12" class="d"/>
  <text x="525" y="348" class="tb">M17</text>
</g>
<g data-marker="M18">
  <circle cx="471" cy="357" r="12" class="d"/>
  <text x="504" y="372" class="tb">M18</text>
</g>
<g data-marker="M19">
  <circle cx="777" cy="360" r="12" class="d"/>
  <text x="810" y="375" class="tb">M19</text>
</g>
<g data-marker="M20">
  <circle cx="921" cy="441" r="12" class="d"/>
  <text x="954" y="456" class="tb">M20</text>
</g>
<g data-marker="M21">
  <circle cx="309" cy="462" r="12" class="d"/>
  <text x="342" y="477" class="tb">M21</text>
</g>
<g data-marker="M22">
  <circle cx="906" cy="498" r="12" class="d"/>
  <text x="939" y="513" class="tb">M22</text>
</g>
<g data-marker="M23">
  <circle cx="327" cy="516" r="12" class="d"/>
  <text x="360" y="531" class="tb">M23</text>
</g>
<g data-marker="M24">
  <circle cx="894" cy="525" r="12" class="d"/>
  <text x="927" y="540" class="tb">M24</text>
</g>
<g data-marker="M25">
  <circle cx="879" cy="552" r="12" class="d"/>
  <text x="912" y="567" class="tb">M25</text>
</g>
<g data-marker="M26">
  <circle cx="864" cy="576" r="12" class="d"/>
  <text x="897" y="591" class="tb">M26</text>
</g>
<g data-marker="M27">
  <circle cx="450" cy="582" r="12" class="d"/>
  <text x="483" y="597" class="tb">M27</text>
</g>
<g data-marker="M28">
  <circle cx="795" cy="585" r="12" class="d"/>
  <text x="828" y="600" class="tb">M28</text>
</g>
<g data-marker="M29">
  <circle cx="375" cy="591" r="12" class="d"/>
  <text x="408" y="606" class="tb">M29</text>
</g>
<g data-marker="M30">
  <circle cx="465" cy="609" r="12" class="d"/>
  <text x="498" y="624" class="tb">M30</text>
</g>
<g data-marker="M31">
  <circle cx="396" cy="615" r="12" class="d"/>
  <text x="429" y="630" class="tb">M31</text>
</g>
<g data-marker="M32">
  <circle cx="417" cy="633" r="12" class="d"/>
  <text x="450" y="648" class="tb">M32</text>
</g>
<g data-marker="M33">
  <circle cx="762" cy="636" r="12" class="d"/>
  <text x="795" y="651" class="tb">M33</text>
</g>
<g data-marker="M34">
  <circle cx="801" cy="639" r="12" class="d"/>
  <text x="834" y="654" class="tb">M34</text>
</g>
<g data-marker="M35">
  <circle cx="501" cy="654" r="12" class="d"/>
  <text x="534" y="669" class="tb">M35</text>
</g>
<g data-marker="M36">
  <circle cx="741" cy="657" r="12" class="d"/>
  <text x="774" y="672" class="tb">M36</text>
</g>
<g data-marker="M37">
  <circle cx="696" cy="690" r="12" class="d"/>
  <text x="729" y="705" class="tb">M37</text>
</g>
<g data-marker="M38">
  <circle cx="666" cy="699" r="12" class="d"/>
  <text x="699" y="714" class="tb">M38</text>
</g>
<!-- WARNING: no trajectory detected -->
</svg>